<svg xmlns="http://www.w3.org/2000/svg" xmlns:xlink="http://www.w3.org/1999/xlink" width="500" zoomAndPan="magnify" viewBox="0 0 375 374.999991" height="500" preserveAspectRatio="xMidYMid meet" version="1.0"><defs><g/></defs><rect x="-37.5" width="450" fill="#ffffff" y="-37.499999" height="449.999989" fill-opacity="1"/><rect x="-37.5" width="450" fill="#ffffff" y="-37.499999" height="449.999989" fill-opacity="1"/><g fill="#3b82f6" fill-opacity="1"><g transform="translate(17.796856, 220.954357)"><g><path d="M 48.484375 -63.453125 L 48.484375 -52.953125 L 20.796875 -52.953125 L 20.796875 -36.15625 L 45.921875 -36.15625 L 45.921875 -25.78125 L 20.796875 -25.78125 L 20.796875 0 L 8.25 0 L 8.25 -63.453125 Z M 48.484375 -63.453125 "/></g></g></g><g fill="#3b82f6" fill-opacity="1"><g transform="translate(69.09846, 220.954357)"><g><path d="M 12.890625 -53.609375 C 10.722656 -53.609375 8.957031 -54.265625 7.59375 -55.578125 C 6.238281 -56.890625 5.5625 -58.585938 5.5625 -60.671875 C 5.5625 -62.734375 6.238281 -64.421875 7.59375 -65.734375 C 8.957031 -67.046875 10.722656 -67.703125 12.890625 -67.703125 C 14.335938 -67.703125 15.625 -67.398438 16.75 -66.796875 C 17.882812 -66.191406 18.757812 -65.359375 19.375 -64.296875 C 20 -63.242188 20.3125 -62.035156 20.3125 -60.671875 C 20.3125 -59.316406 20 -58.101562 19.375 -57.03125 C 18.757812 -55.957031 17.882812 -55.117188 16.75 -54.515625 C 15.625 -53.910156 14.335938 -53.609375 12.890625 -53.609375 Z M 6.90625 0 L 6.90625 -47.875 L 18.921875 -47.875 L 18.921875 0 Z M 6.90625 0 "/></g></g></g><g fill="#3b82f6" fill-opacity="1"><g transform="translate(94.87947, 220.954357)"><g><path d="M 6.90625 0 L 6.90625 -47.875 L 18.453125 -47.875 L 18.453125 -40.84375 L 19.359375 -40.625 C 22.335938 -46.0625 27.171875 -48.78125 33.859375 -48.78125 C 39.378906 -48.78125 43.4375 -47.273438 46.03125 -44.265625 C 48.625 -41.253906 49.921875 -36.875 49.921875 -31.125 L 49.921875 0 L 37.890625 0 L 37.890625 -29.640625 C 37.890625 -32.828125 37.253906 -35.117188 35.984375 -36.515625 C 34.710938 -37.921875 32.671875 -38.625 29.859375 -38.625 C 26.421875 -38.625 23.738281 -37.507812 21.8125 -35.28125 C 19.882812 -33.050781 18.921875 -29.550781 18.921875 -24.78125 L 18.921875 0 Z M 6.90625 0 "/></g></g></g><g fill="#a957f7" fill-opacity="1"><g transform="translate(150.96715, 220.954357)"><g><path d="M 34.671875 0.90625 C 28.828125 0.90625 23.675781 -0.304688 19.21875 -2.734375 C 14.769531 -5.160156 11.285156 -8.8125 8.765625 -13.6875 C 6.242188 -18.5625 4.984375 -24.578125 4.984375 -31.734375 C 4.984375 -38.878906 6.242188 -44.890625 8.765625 -49.765625 C 11.285156 -54.640625 14.769531 -58.289062 19.21875 -60.71875 C 23.675781 -63.15625 28.828125 -64.375 34.671875 -64.375 C 40.785156 -64.375 45.972656 -63.175781 50.234375 -60.78125 C 54.503906 -58.394531 57.550781 -54.757812 59.375 -49.875 L 50.21875 -44.265625 L 49.140625 -44.3125 C 47.773438 -47.613281 45.925781 -49.976562 43.59375 -51.40625 C 41.269531 -52.84375 38.296875 -53.5625 34.671875 -53.5625 C 29.410156 -53.5625 25.300781 -51.816406 22.34375 -48.328125 C 19.394531 -44.835938 17.921875 -39.304688 17.921875 -31.734375 C 17.921875 -24.179688 19.394531 -18.660156 22.34375 -15.171875 C 25.300781 -11.679688 29.410156 -9.9375 34.671875 -9.9375 C 42.921875 -9.9375 47.972656 -13.945312 49.828125 -21.96875 L 50.90625 -21.96875 L 60.15625 -17.140625 C 58.414062 -11.117188 55.445312 -6.601562 51.25 -3.59375 C 47.0625 -0.59375 41.535156 0.90625 34.671875 0.90625 Z M 34.671875 0.90625 "/></g></g></g><g fill="#a957f7" fill-opacity="1"><g transform="translate(213.206152, 220.954357)"><g><path d="M 27.828125 0.90625 C 23.140625 0.90625 19.019531 -0.0507812 15.46875 -1.96875 C 11.925781 -3.894531 9.175781 -6.71875 7.21875 -10.4375 C 5.269531 -14.15625 4.296875 -18.648438 4.296875 -23.921875 C 4.296875 -29.179688 5.269531 -33.675781 7.21875 -37.40625 C 9.175781 -41.144531 11.925781 -43.972656 15.46875 -45.890625 C 19.019531 -47.816406 23.140625 -48.78125 27.828125 -48.78125 C 32.515625 -48.78125 36.628906 -47.816406 40.171875 -45.890625 C 43.710938 -43.972656 46.46875 -41.144531 48.4375 -37.40625 C 50.40625 -33.675781 51.390625 -29.179688 51.390625 -23.921875 C 51.390625 -18.648438 50.40625 -14.15625 48.4375 -10.4375 C 46.46875 -6.71875 43.710938 -3.894531 40.171875 -1.96875 C 36.628906 -0.0507812 32.515625 0.90625 27.828125 0.90625 Z M 27.828125 -9.28125 C 35.253906 -9.28125 38.96875 -14.160156 38.96875 -23.921875 C 38.96875 -28.984375 38.015625 -32.691406 36.109375 -35.046875 C 34.203125 -37.398438 31.441406 -38.578125 27.828125 -38.578125 C 20.390625 -38.578125 16.671875 -33.691406 16.671875 -23.921875 C 16.671875 -14.160156 20.390625 -9.28125 27.828125 -9.28125 Z M 27.828125 -9.28125 "/></g></g></g><g fill="#a957f7" fill-opacity="1"><g transform="translate(268.847994, 220.954357)"><g><path d="M 6.90625 0 L 6.90625 -47.875 L 18.578125 -47.875 L 18.578125 -40.75 L 19.484375 -40.578125 C 20.640625 -43.242188 22.15625 -45.195312 24.03125 -46.4375 C 25.914062 -47.6875 28.207031 -48.3125 30.90625 -48.3125 C 33.625 -48.3125 35.691406 -47.847656 37.109375 -46.921875 L 35.0625 -36.546875 L 34.15625 -36.375 C 33.375 -36.6875 32.617188 -36.914062 31.890625 -37.0625 C 31.171875 -37.207031 30.289062 -37.28125 29.25 -37.28125 C 25.894531 -37.28125 23.332031 -36.097656 21.5625 -33.734375 C 19.800781 -31.378906 18.921875 -27.597656 18.921875 -22.390625 L 18.921875 0 Z M 6.90625 0 "/></g></g></g><g fill="#a957f7" fill-opacity="1"><g transform="translate(305.132329, 220.954357)"><g><path d="M 47.3125 -21.21875 L 16.53125 -21.21875 C 16.882812 -17.050781 18.070312 -14.019531 20.09375 -12.125 C 22.125 -10.226562 24.890625 -9.28125 28.390625 -9.28125 C 31.140625 -9.28125 33.363281 -9.796875 35.0625 -10.828125 C 36.769531 -11.859375 38.144531 -13.414062 39.1875 -15.5 L 40.109375 -15.5 L 48.09375 -10.375 C 46.53125 -7.019531 44.171875 -4.300781 41.015625 -2.21875 C 37.859375 -0.132812 33.648438 0.90625 28.390625 0.90625 C 23.441406 0.90625 19.164062 -0.03125 15.5625 -1.90625 C 11.957031 -3.789062 9.175781 -6.59375 7.21875 -10.3125 C 5.269531 -14.03125 4.296875 -18.566406 4.296875 -23.921875 C 4.296875 -29.359375 5.320312 -33.941406 7.375 -37.671875 C 9.425781 -41.398438 12.203125 -44.179688 15.703125 -46.015625 C 19.210938 -47.859375 23.148438 -48.78125 27.515625 -48.78125 C 34.285156 -48.78125 39.472656 -46.984375 43.078125 -43.390625 C 46.679688 -39.804688 48.484375 -34.546875 48.484375 -27.609375 C 48.484375 -25.085938 48.394531 -23.132812 48.21875 -21.75 Z M 36.984375 -29 C 36.867188 -32.644531 36.019531 -35.296875 34.4375 -36.953125 C 32.863281 -38.617188 30.554688 -39.453125 27.515625 -39.453125 C 21.441406 -39.453125 17.867188 -35.96875 16.796875 -29 Z M 36.984375 -29 "/></g></g></g></svg>